<?xml version="1.0" encoding="UTF-8" standalone="no"?>
<!-- Created with Inkscape (http://www.inkscape.org/) -->

<svg
   width="512"
   height="512"
   viewBox="0 0 512 512"
   version="1.1"
   id="svg5"
   inkscape:version="1.2.2 (b0a8486541, 2022-12-01)"
   sodipodi:docname="icon-text.svg"
   xml:space="preserve"
   inkscape:export-filename="icon.png"
   inkscape:export-xdpi="150"
   inkscape:export-ydpi="150"
   xmlns:inkscape="http://www.inkscape.org/namespaces/inkscape"
   xmlns:sodipodi="http://sodipodi.sourceforge.net/DTD/sodipodi-0.dtd"
   xmlns:xlink="http://www.w3.org/1999/xlink"
   xmlns="http://www.w3.org/2000/svg"
   xmlns:svg="http://www.w3.org/2000/svg"><sodipodi:namedview
     id="namedview7"
     pagecolor="#ffffff"
     bordercolor="#000000"
     borderopacity="0.25"
     inkscape:showpageshadow="2"
     inkscape:pageopacity="0.0"
     inkscape:pagecheckerboard="0"
     inkscape:deskcolor="#d1d1d1"
     inkscape:document-units="px"
     showgrid="false"
     inkscape:zoom="1.5550217"
     inkscape:cx="256.26652"
     inkscape:cy="275.55886"
     inkscape:window-width="1920"
     inkscape:window-height="1002"
     inkscape:window-x="0"
     inkscape:window-y="0"
     inkscape:window-maximized="1"
     inkscape:current-layer="layer1"
     showguides="true" /><defs
     id="defs2"><linearGradient
       inkscape:collect="always"
       id="linearGradient3308"><stop
         style="stop-color:#2af598;stop-opacity:1;"
         offset="0"
         id="stop3304" /><stop
         style="stop-color:#00a7ef;stop-opacity:1;"
         offset="1"
         id="stop3306" /></linearGradient><linearGradient
       inkscape:collect="always"
       xlink:href="#linearGradient3308"
       id="linearGradient3310"
       x1="3.2743316"
       y1="4.7422872"
       x2="247.94806"
       y2="406.04303"
       gradientUnits="userSpaceOnUse" /></defs><g
     inkscape:label="图层 1"
     inkscape:groupmode="layer"
     id="layer1"
     style="display:inline"><text
       xml:space="preserve"
       style="font-style:normal;font-variant:normal;font-weight:normal;font-stretch:normal;font-size:133.333px;line-height:1;font-family:Hack;-inkscape-font-specification:Hack;text-align:start;word-spacing:0px;text-anchor:start;fill:#ffffff"
       x="36.974831"
       y="178.77087"
       id="text133"><tspan
         style="font-style:normal;font-variant:normal;font-weight:normal;font-stretch:normal;font-size:130.667px;font-family:Hack;-inkscape-font-specification:Hack;font-variant-ligatures:normal;font-variant-caps:normal;font-variant-numeric:normal;font-variant-east-asian:normal;text-align:start;text-anchor:start;fill:#000000"
         sodipodi:role="line"
         id="tspan514"
         x="36.974831"
         y="178.77087" /></text><text
       xml:space="preserve"
       style="font-size:500.86px;line-height:0;font-family:Furore;-inkscape-font-specification:Furore;fill:url(#linearGradient3310);stroke-width:0.988541;fill-opacity:1"
       x="-5.8680601"
       y="392.0325"
       id="text112"
       transform="matrix(0.79158398,0,-0.00122679,1.2632898,0,0)"><tspan
         sodipodi:role="line"
         id="tspan110"
         x="-5.8680601"
         y="392.0325"
         style="font-style:oblique;font-variant:normal;font-weight:normal;font-stretch:normal;font-size:500.86px;font-family:'得意黑';-inkscape-font-specification:'得意黑 Oblique';stroke-width:0.988541;fill-opacity:1;fill:url(#linearGradient3310)">P</tspan><tspan
         sodipodi:role="line"
         x="-5.8680601"
         y="424.35165"
         style="font-style:oblique;font-variant:normal;font-weight:normal;font-stretch:normal;font-size:500.86px;font-family:'得意黑';-inkscape-font-specification:'得意黑 Oblique';stroke-width:0.988541;fill-opacity:1;fill:url(#linearGradient3310)"
         id="tspan272" /></text><text
       xml:space="preserve"
       style="font-style:oblique;font-variant:normal;font-weight:normal;font-stretch:normal;font-size:200px;line-height:0;font-family:'得意黑';-inkscape-font-specification:'得意黑 Oblique';fill:#85f529;fill-opacity:1"
       x="89.060242"
       y="511.86646"
       id="text276"><tspan
         sodipodi:role="line"
         id="tspan274"
         x="89.060242"
         y="511.86646"
         style="font-style:italic;font-variant:normal;font-weight:normal;font-stretch:normal;font-size:200px;font-family:Furore;-inkscape-font-specification:'Furore Italic';fill:#85f529;fill-opacity:1">CAd</tspan></text><g
       id="g26952"
       transform="matrix(0.2746471,0,0,0.27390285,209.45604,36.478457)"
       style="fill:#f53329;fill-opacity:1"><path
         d="m 336.80191,623.81724 c 45.68662,0 82.77575,37.18911 82.77575,82.77575 0,45.58664 -37.1891,82.77575 -82.77575,82.77575 -45.58664,0 -82.87572,-37.08913 -82.87572,-82.77575 0,-45.68662 37.18911,-82.77575 82.87572,-82.77575 m 0,-63.98125 c -81.07624,0 -146.85697,65.68075 -146.85697,146.757 0,81.07625 65.68076,146.75701 146.757,146.75701 81.07625,0 146.75701,-65.68076 146.75701,-146.75701 0,-81.07625 -65.58079,-146.757 -146.65704,-146.757 z"
         p-id="2918"
         id="path26937"
         style="fill:#f53329;fill-opacity:1" /><path
         d="m 433.27365,453.26721 c 26.09236,6.59806 55.88363,23.893 74.67812,43.08737 -16.69511,50.78513 -5.7983,86.57464 6.39813,107.66846 12.19642,21.09382 37.68895,48.4858 89.97364,59.3826 7.29786,25.89242 7.29786,60.38231 0,86.27473 -52.28468,10.8968 -77.87719,38.28878 -89.97364,59.3826 -12.19643,21.09382 -23.19321,56.88334 -6.39813,107.66846 -18.79449,19.29434 -48.68573,36.48931 -74.67812,43.08737 -35.58957,-39.88831 -72.07888,-48.28585 -96.47174,-48.28585 -24.39285,0 -60.88216,8.39754 -96.47173,48.28585 -26.09236,-6.59806 -55.88363,-23.893 -74.67812,-43.08737 16.6951,-50.78513 5.7983,-86.57464 -6.39813,-107.66846 -12.19643,-21.09382 -37.68896,-48.4858 -89.973641,-59.3826 -7.297862,-25.89242 -7.297862,-60.38231 0,-86.27473 52.284681,-10.8968 77.877181,-38.28878 89.973641,-59.3826 12.19643,-21.09382 23.19321,-56.88333 6.39813,-107.66846 18.79449,-19.29434 48.68573,-36.48931 74.67812,-43.08737 35.58957,39.88831 72.07888,48.28585 96.47173,48.28585 24.39286,0 60.7822,-8.39754 96.47174,-48.28585 m -0.29991,-64.08123 c -17.79479,0 -35.08972,7.59778 -47.18618,21.19379 -16.09528,18.0947 -32.49048,27.09207 -48.88568,27.09206 -16.39519,0 -32.89036,-8.99736 -48.88567,-27.09206 -12.19643,-13.69599 -29.39139,-21.19379 -47.18618,-21.19379 -5.09851,0 -10.19701,0.59983 -15.29552,1.89944 -37.8889,9.49722 -78.97686,33.19028 -106.06892,61.28205 -16.29523,16.89505 -21.89359,41.48785 -14.49576,63.78132 15.29552,45.88655 -1.49956,74.97803 -48.885675,84.77516 -22.993264,4.69862 -41.487845,21.79361 -47.985942,44.38699 -10.796837,37.58899 -10.796837,84.97511 0,122.5641 6.498096,22.59338 24.992678,39.68837 47.985942,44.38699 47.386115,9.69716 64.181195,38.78864 48.885675,84.77517 -7.39783,22.29346 -1.89944,46.88626 14.49576,63.78131 27.19203,28.09177 68.18002,51.78479 106.06892,61.28209 5.09851,1.2996 10.19701,1.8994 15.29552,1.8994 17.79479,0 35.08972,-7.5978 47.18618,-21.1938 16.09528,-18.09469 32.49048,-27.09205 48.88567,-27.09205 16.3952,0 32.89037,8.99736 48.88568,27.09205 12.19643,13.696 29.39139,21.1938 47.18618,21.1938 5.0985,0 10.19701,-0.5998 15.29552,-1.8994 37.8889,-9.4973 78.97686,-33.19032 106.06892,-61.28209 16.29523,-16.89505 21.89359,-41.48785 14.49575,-63.78131 -15.29551,-45.88656 1.49957,-74.97804 48.88568,-84.77517 22.99327,-4.69862 41.48785,-21.79361 47.98594,-44.38699 10.79684,-37.58899 10.79684,-84.97511 0,-122.5641 -6.49809,-22.59338 -24.99267,-39.68837 -47.98594,-44.38699 -47.38611,-9.69716 -64.18119,-38.78864 -48.88568,-84.77516 7.39784,-22.29347 1.89945,-46.88627 -14.49575,-63.78132 -27.19203,-28.09177 -68.18002,-51.78483 -106.06892,-61.28205 -5.09851,-1.29961 -10.29699,-1.89944 -15.29552,-1.89944 z M 710.69237,212.23782 c 19.79421,0 35.78952,16.09529 35.78952,35.78952 0,19.69423 -16.09528,35.88948 -35.78952,35.88948 -19.69423,0 -35.88948,-16.09528 -35.88948,-35.78951 0,-19.69423 16.09529,-35.88949 35.88949,-35.88949 m 0,-63.98126 c -55.08387,0 -99.77077,44.68691 -99.77077,99.77078 0,55.08386 44.6869,99.77077 99.77077,99.77077 55.08386,0 99.77077,-44.68691 99.77077,-99.77077 0,-55.08387 -44.68691,-99.77077 -99.77077,-99.77078 z"
         p-id="2919"
         id="path26939"
         style="fill:#f53329;fill-opacity:1" /><path
         d="m 639.51323,99.370887 c 26.19232,24.292883 52.68456,29.791273 71.17915,29.791273 18.49458,0 44.98682,-5.49839 71.17914,-29.791273 7.59778,3.199063 15.39549,7.697743 21.99356,12.696283 -7.89769,34.88978 0.59982,60.58225 9.79713,76.57756 9.1973,15.99532 27.19203,36.1894 61.38202,46.7863 0.9997,8.19759 0.9997,17.19496 0,25.39256 -34.18999,10.59689 -52.18472,30.79098 -61.38202,46.78629 -9.19731,15.99531 -17.79479,41.68779 -9.79713,76.57756 -6.59807,4.99854 -14.39578,9.49722 -21.99356,12.69628 -26.19232,-24.29288 -52.68456,-29.79127 -71.17914,-29.79127 -18.49459,0 -44.98682,5.49839 -71.17915,29.79127 -7.59777,-3.19906 -15.39549,-7.69774 -21.99356,-12.69628 7.89769,-34.88977 -0.59982,-60.58225 -9.79713,-76.57756 -9.1973,-15.99531 -27.19203,-36.1894 -61.38201,-46.78629 -0.99971,-8.1976 -0.99971,-17.19497 0,-25.39256 34.18998,-10.5969 52.18471,-30.79098 61.38201,-46.7863 9.19731,-15.99531 17.79479,-41.68778 9.79713,-76.57756 6.59807,-4.89857 14.39578,-9.49722 21.99356,-12.696283 M 776.07322,32.29054 c -12.09645,0 -23.79303,5.098506 -32.0906,14.395782 -10.89681,12.296398 -22.09352,18.494582 -33.29024,18.494582 -11.19672,0 -22.29347,-6.198184 -33.29025,-18.494582 -8.29757,-9.297276 -19.99414,-14.395782 -32.0906,-14.395782 -3.49897,0 -6.89798,0.399883 -10.39695,1.299619 -25.79245,6.398126 -53.68428,22.49341 -72.17886,41.687787 a 42.813457,42.813457 0 0 0 -9.79713,43.387284 c 10.39696,31.19087 -0.9997,50.98507 -33.29025,57.58313 -15.6954,3.19907 -28.19174,14.79567 -32.59045,30.19116 -7.29786,25.49253 -7.29786,57.78307 0,83.2756 4.39871,15.39549 16.99502,26.9921 32.59045,30.19116 32.19057,6.59806 43.68721,26.39226 33.29025,57.58313 -4.99853,15.19554 -1.29962,31.89065 9.79713,43.38729 18.49458,19.0944 46.38641,35.18969 72.17886,41.68778 3.399,0.89974 6.89797,1.29962 10.39695,1.29962 12.09646,0 23.79303,-5.0985 32.0906,-14.39578 10.89681,-12.2964 22.09353,-18.49458 33.29025,-18.49458 11.19672,0 22.29346,6.19818 33.29024,18.49458 8.29757,9.29728 19.99414,14.39578 32.0906,14.39578 3.49898,0 6.89798,-0.39988 10.39696,-1.29962 25.79244,-6.39812 53.68427,-22.49341 72.17885,-41.68778 11.09675,-11.49664 14.89564,-28.19175 9.79713,-43.38729 -10.39696,-31.19087 0.99971,-50.98507 33.29025,-57.58313 15.6954,-3.19907 28.19174,-14.79567 32.59045,-30.19116 7.29786,-25.49253 7.29786,-57.78307 0,-83.2756 -4.39871,-15.39549 -16.99502,-26.99209 -32.59045,-30.19116 -32.19057,-6.59806 -43.68721,-26.39226 -33.29025,-57.58312 4.99853,-15.19555 1.29962,-31.890662 -9.79713,-43.387294 C 840.15445,56.18354 812.26262,40.088255 786.47018,33.590159 782.9712,32.690423 779.47223,32.29054 776.07322,32.29054 Z m 45.88656,539.24202 c 16.29522,9.29727 31.79068,11.69657 43.58723,11.69657 11.79654,0 27.39197,-2.49927 43.58723,-11.69657 0.1,18.69452 5.69833,33.39022 11.69657,43.58723 5.99824,10.19701 15.79537,22.49341 31.89066,31.89066 -16.09529,9.39724 -25.99239,21.59367 -31.89066,31.89065 -5.89827,10.29699 -11.5966,24.89271 -11.69657,43.58723 -16.29523,-9.29727 -31.79069,-11.69657 -43.58723,-11.69657 -11.79655,0 -27.39198,2.49927 -43.58723,11.69657 -0.1,-18.69452 -5.69833,-33.39022 -11.69658,-43.58723 -5.99824,-10.19701 -15.79537,-22.49341 -31.89065,-31.89065 16.09528,-9.39725 25.99238,-21.59368 31.89065,-31.89066 5.89828,-10.29698 11.59661,-24.89271 11.69658,-43.58723 m 89.27384,-75.27795 c -8.49751,0 -16.69511,3.59895 -22.39344,10.09704 -7.59777,8.59749 -15.39549,12.89623 -23.29317,12.89623 -7.89769,0 -15.59543,-4.29874 -23.29318,-12.89623 -5.7983,-6.49809 -13.9959,-10.09704 -22.39344,-10.09704 -2.3993,0 -4.89856,0.29991 -7.29786,0.89974 -17.99473,4.49868 -37.48902,15.79537 -50.38524,29.09148 -7.79771,7.99765 -10.39695,19.69423 -6.89798,30.29112 7.29787,21.79362 -0.69979,35.58958 -23.29317,40.2882 -10.89681,2.29932 -19.69423,10.39695 -22.79332,21.09382 -5.09851,17.89476 -5.09851,40.38817 0,58.18295 3.09909,10.69687 11.89651,18.89447 22.79332,21.09382 22.49341,4.59866 30.49106,18.49459 23.29317,40.2882 -3.49897,10.5969 -0.89973,22.29347 6.89798,30.29113 12.89622,13.39607 32.39051,24.59279 50.38524,29.09147 2.3993,0.59983 4.7986,0.89974 7.29786,0.89974 8.49751,0 16.69511,-3.59895 22.39344,-10.09704 7.59778,-8.59748 15.39549,-12.89622 23.29318,-12.89622 7.89768,0 15.59543,4.29874 23.29317,12.89622 5.79831,6.49809 13.9959,10.09704 22.39344,10.09704 2.3993,0 4.89857,-0.29991 7.29787,-0.89974 17.99472,-4.49868 37.48901,-15.79537 50.38523,-29.09147 7.79772,-7.99766 10.39696,-19.69423 6.89798,-30.29113 -7.29786,-21.79361 0.6998,-35.58957 23.29318,-40.2882 10.89682,-2.29932 19.69422,-10.39695 22.79332,-21.09382 5.0985,-17.89475 5.0985,-40.38816 0,-58.18295 -3.0991,-10.69687 -11.8965,-18.89447 -22.79332,-21.09382 -22.49341,-4.59865 -30.49107,-18.49458 -23.29318,-40.2882 3.49898,-10.59689 0.89974,-22.29347 -6.89798,-30.29112 -12.89622,-13.39608 -32.39051,-24.5928 -50.38523,-29.09148 -2.3993,-0.59982 -4.89857,-0.89974 -7.29787,-0.89974 z"
         p-id="2920"
         id="path26941"
         style="fill:#f53329;fill-opacity:1" /></g></g></svg>
